<?xml version="1.0" encoding="UTF-8" standalone="no"?>
<!DOCTYPE svg PUBLIC "-//W3C//DTD SVG 20010904//EN"
              "http://www.w3.org/TR/2001/REC-SVG-20010904/DTD/svg10.dtd">

<svg xmlns="http://www.w3.org/2000/svg"
     width="1in" height="1in"
     viewBox="0 0 300 300">

  <ellipse fill="white" cx="50%" cy="50%" rx="50%" ry="50%" />

  <path fill="#292824" stroke="none" stroke-width="1"
        d="M 90.88,67.62
           C 93.12,71.31 92.69,78.25 92.36,80.36
             92.36,80.36 47.12,235.62 47.12,235.62
             47.12,235.62 82.50,235.75 82.50,235.75
             82.50,235.75 108.88,152.00 124.25,95.12
             131.50,64.25 135.38,41.75 135.38,41.75
             135.38,41.75 61.12,46.62 61.12,46.62
             61.12,46.62 59.81,61.69 59.81,61.69
             59.79,61.52 83.15,61.94 83.27,62.91
             86.12,63.50 88.62,65.19 90.88,67.62 Z" />

  <path fill="#918970" stroke="none" stroke-width="1"
        d="M 212.00,239.73
           C 212.02,240.28 228.41,232.97 228.38,232.25
             228.81,232.22 239.70,223.73 239.38,223.75
             241.31,223.87 250.11,213.95 258.12,203.38
             266.64,192.14 274.33,180.20 273.62,179.50
             273.62,179.50 262.88,170.75 262.88,170.75
             262.88,170.75 243.81,196.62 243.81,196.62
             243.81,196.62 239.13,202.79 233.31,208.00
             227.20,213.47 219.94,218.00 219.94,218.00
             219.94,218.00 213.94,220.95 209.56,220.81
             206.39,220.71 204.44,217.50 204.44,217.50
             204.44,217.50 203.05,214.08 203.06,210.38
             203.08,206.90 204.50,203.12 204.50,203.12
             204.50,203.12 214.75,173.38 214.75,173.38
             214.75,173.38 227.64,136.00 227.64,136.00
             227.64,136.00 230.91,127.47 233.50,119.38
             235.73,112.40 237.35,105.70 237.35,105.70
             237.35,105.70 238.50,101.50 239.30,97.26
             240.09,93.09 240.52,88.87 240.52,88.87
             240.52,88.87 240.57,75.52 240.57,75.52
             240.57,75.52 240.19,73.48 239.65,71.57
             239.23,70.08 238.61,68.61 238.61,68.61
             238.61,68.61 237.45,65.32 235.83,62.35
             234.45,59.84 232.57,57.57 232.57,57.57
             232.57,57.57 230.79,54.99 228.74,52.83
             226.96,50.95 224.87,49.43 224.87,49.43
             224.87,49.43 222.43,47.48 219.52,45.91
             216.28,44.17 212.52,42.78 212.52,42.78
             212.52,42.78 209.43,41.97 206.83,41.70
             203.59,41.35 200.70,41.52 200.70,41.52
             200.70,41.52 197.85,41.38 195.27,41.55
             192.17,41.74 189.00,42.36 189.00,42.36
             189.00,42.36 184.50,43.59 180.55,45.36
             176.29,47.27 172.55,49.73 172.55,49.73
             172.55,49.73 167.91,51.92 163.18,55.36
             157.50,59.49 151.55,65.00 151.55,65.00
             151.55,65.00 145.06,71.59 138.64,78.73
             131.59,86.56 124.55,95.00 124.55,95.00
             124.55,95.00 110.81,143.50 110.81,143.50
             110.81,143.50 111.80,141.42 112.94,139.25
             113.56,138.07 114.22,137.16 114.81,135.88
             116.19,132.89 117.62,130.12 117.62,130.12
             117.62,130.12 118.64,127.39 120.00,125.00
             121.39,122.55 123.12,120.44 123.12,120.44
             123.12,120.44 125.01,116.82 127.06,113.62
             128.72,111.05 130.62,108.75 130.62,108.75
             130.62,108.75 132.63,105.31 134.88,102.31
             136.71,99.86 138.88,97.75 138.88,97.75
             138.88,97.75 141.71,93.86 145.06,90.25
             148.17,86.90 151.82,83.82 151.82,83.82
             151.82,83.82 155.36,80.40 159.09,77.55
             162.48,74.96 166.09,72.91 166.09,72.91
             166.09,72.91 169.64,70.37 173.64,68.64
             177.26,67.06 181.36,66.27 181.36,66.27
             181.36,66.27 193.27,66.27 193.27,66.27
             193.27,66.27 197.34,67.60 200.00,70.00
             202.79,72.51 204.18,76.09 204.18,76.09
             204.18,76.09 204.18,92.91 204.18,92.91
             204.18,92.91 193.64,128.55 182.18,159.64
             175.02,182.68 169.91,203.11 169.91,203.11
             169.91,203.11 169.80,216.78 169.80,216.78
             169.80,216.78 169.99,219.22 170.82,221.47
             171.70,223.87 173.22,226.09 173.22,226.09
             173.22,226.09 173.97,228.20 175.40,230.11
             176.96,232.20 179.20,234.11 179.20,234.11
             179.20,234.11 180.94,235.76 183.29,237.16
             185.93,238.72 189.20,240.04 189.20,240.04
             189.20,240.04 191.26,240.81 193.51,241.22
             196.02,241.68 198.75,241.78 198.75,241.78
             198.92,241.83 202.62,241.67 206.07,241.18
             208.97,240.77 211.70,240.04 212.03,239.91" />
</svg>
